<mxfile host="Electron" agent="Mozilla/5.0 (X11; Linux x86_64) AppleWebKit/537.36 (KHTML, like Gecko) draw.io/24.7.17 Chrome/128.0.6613.36 Electron/32.0.1 Safari/537.36" version="24.7.17">
  <diagram name="PÃ¡gina-1" id="4myNt7Q0nFMKxgGYclvE">
    <mxGraphModel dx="1591" dy="947" grid="1" gridSize="10" guides="1" tooltips="1" connect="1" arrows="1" fold="1" page="1" pageScale="1" pageWidth="827" pageHeight="1169" math="0" shadow="0">
      <root>
        <mxCell id="0" />
        <mxCell id="1" parent="0" />
        <mxCell id="qNSdqKUybDEzENmmfayv-60" value="" style="rounded=0;whiteSpace=wrap;html=1;strokeWidth=3;strokeColor=#CCCC00;" vertex="1" parent="1">
          <mxGeometry x="150" y="120" width="460" height="890" as="geometry" />
        </mxCell>
        <mxCell id="qNSdqKUybDEzENmmfayv-7" value="BLOCK 1" style="rounded=1;whiteSpace=wrap;html=1;" vertex="1" parent="1">
          <mxGeometry x="320" y="210" width="110" height="50" as="geometry" />
        </mxCell>
        <mxCell id="qNSdqKUybDEzENmmfayv-42" style="edgeStyle=orthogonalEdgeStyle;rounded=0;orthogonalLoop=1;jettySize=auto;html=1;exitX=1;exitY=0.5;exitDx=0;exitDy=0;" edge="1" parent="1" source="qNSdqKUybDEzENmmfayv-10" target="qNSdqKUybDEzENmmfayv-37">
          <mxGeometry relative="1" as="geometry" />
        </mxCell>
        <mxCell id="qNSdqKUybDEzENmmfayv-10" value="BLOCK 2" style="rounded=1;whiteSpace=wrap;html=1;" vertex="1" parent="1">
          <mxGeometry x="320" y="440" width="110" height="50" as="geometry" />
        </mxCell>
        <mxCell id="qNSdqKUybDEzENmmfayv-11" value="BLOCK n" style="rounded=1;whiteSpace=wrap;html=1;" vertex="1" parent="1">
          <mxGeometry x="270" y="850" width="110" height="50" as="geometry" />
        </mxCell>
        <mxCell id="qNSdqKUybDEzENmmfayv-18" value="" style="endArrow=none;html=1;rounded=0;" edge="1" parent="1">
          <mxGeometry width="50" height="50" relative="1" as="geometry">
            <mxPoint x="354.58" y="390" as="sourcePoint" />
            <mxPoint x="354.58" y="350" as="targetPoint" />
          </mxGeometry>
        </mxCell>
        <mxCell id="qNSdqKUybDEzENmmfayv-19" value="" style="endArrow=none;html=1;rounded=0;" edge="1" parent="1">
          <mxGeometry width="50" height="50" relative="1" as="geometry">
            <mxPoint x="250" y="390" as="sourcePoint" />
            <mxPoint x="390" y="390" as="targetPoint" />
          </mxGeometry>
        </mxCell>
        <mxCell id="qNSdqKUybDEzENmmfayv-20" value="&lt;font color=&quot;#ff0000&quot; style=&quot;font-size: 21px;&quot;&gt;-&lt;/font&gt;" style="ellipse;whiteSpace=wrap;html=1;aspect=fixed;strokeColor=#FF0000;strokeWidth=2;" vertex="1" parent="1">
          <mxGeometry x="340" y="320" width="30" height="30" as="geometry" />
        </mxCell>
        <mxCell id="qNSdqKUybDEzENmmfayv-21" value="" style="endArrow=classic;html=1;rounded=0;entryX=0.624;entryY=-0.043;entryDx=0;entryDy=0;entryPerimeter=0;" edge="1" parent="1" target="qNSdqKUybDEzENmmfayv-10">
          <mxGeometry width="50" height="50" relative="1" as="geometry">
            <mxPoint x="390" y="390" as="sourcePoint" />
            <mxPoint x="480" y="330" as="targetPoint" />
          </mxGeometry>
        </mxCell>
        <mxCell id="qNSdqKUybDEzENmmfayv-22" value="" style="endArrow=classic;html=1;rounded=0;" edge="1" parent="1">
          <mxGeometry width="50" height="50" relative="1" as="geometry">
            <mxPoint x="375" y="100" as="sourcePoint" />
            <mxPoint x="374.58" y="210" as="targetPoint" />
          </mxGeometry>
        </mxCell>
        <mxCell id="qNSdqKUybDEzENmmfayv-24" value="" style="endArrow=classic;html=1;rounded=0;entryX=0;entryY=0.5;entryDx=0;entryDy=0;" edge="1" parent="1" target="qNSdqKUybDEzENmmfayv-20">
          <mxGeometry width="50" height="50" relative="1" as="geometry">
            <mxPoint x="200" y="335" as="sourcePoint" />
            <mxPoint x="260" y="280" as="targetPoint" />
          </mxGeometry>
        </mxCell>
        <mxCell id="qNSdqKUybDEzENmmfayv-25" value="" style="endArrow=none;html=1;rounded=0;" edge="1" parent="1">
          <mxGeometry width="50" height="50" relative="1" as="geometry">
            <mxPoint x="200" y="330" as="sourcePoint" />
            <mxPoint x="200" y="170" as="targetPoint" />
          </mxGeometry>
        </mxCell>
        <mxCell id="qNSdqKUybDEzENmmfayv-26" value="" style="endArrow=none;html=1;rounded=0;" edge="1" parent="1">
          <mxGeometry width="50" height="50" relative="1" as="geometry">
            <mxPoint x="200" y="170" as="sourcePoint" />
            <mxPoint x="370" y="170" as="targetPoint" />
          </mxGeometry>
        </mxCell>
        <mxCell id="qNSdqKUybDEzENmmfayv-27" value="" style="endArrow=classic;html=1;rounded=0;entryX=0.5;entryY=0;entryDx=0;entryDy=0;exitX=0.314;exitY=1.023;exitDx=0;exitDy=0;exitPerimeter=0;" edge="1" parent="1" source="qNSdqKUybDEzENmmfayv-7" target="qNSdqKUybDEzENmmfayv-20">
          <mxGeometry width="50" height="50" relative="1" as="geometry">
            <mxPoint x="400" y="310" as="sourcePoint" />
            <mxPoint x="450" y="260" as="targetPoint" />
          </mxGeometry>
        </mxCell>
        <mxCell id="qNSdqKUybDEzENmmfayv-28" value="&lt;font color=&quot;#ff0000&quot; style=&quot;font-size: 21px;&quot;&gt;-&lt;/font&gt;" style="ellipse;whiteSpace=wrap;html=1;aspect=fixed;strokeColor=#FF0000;strokeWidth=2;" vertex="1" parent="1">
          <mxGeometry x="340" y="570" width="30" height="30" as="geometry" />
        </mxCell>
        <mxCell id="qNSdqKUybDEzENmmfayv-29" value="" style="endArrow=classic;html=1;rounded=0;entryX=0.5;entryY=0;entryDx=0;entryDy=0;" edge="1" parent="1" target="qNSdqKUybDEzENmmfayv-28">
          <mxGeometry width="50" height="50" relative="1" as="geometry">
            <mxPoint x="355" y="490" as="sourcePoint" />
            <mxPoint x="395" y="540" as="targetPoint" />
          </mxGeometry>
        </mxCell>
        <mxCell id="qNSdqKUybDEzENmmfayv-30" value="" style="endArrow=none;html=1;rounded=0;" edge="1" parent="1">
          <mxGeometry width="50" height="50" relative="1" as="geometry">
            <mxPoint x="250" y="580" as="sourcePoint" />
            <mxPoint x="250" y="390" as="targetPoint" />
          </mxGeometry>
        </mxCell>
        <mxCell id="qNSdqKUybDEzENmmfayv-31" value="" style="endArrow=classic;html=1;rounded=0;entryX=0;entryY=0.5;entryDx=0;entryDy=0;" edge="1" parent="1">
          <mxGeometry width="50" height="50" relative="1" as="geometry">
            <mxPoint x="250" y="584.58" as="sourcePoint" />
            <mxPoint x="340" y="584.58" as="targetPoint" />
          </mxGeometry>
        </mxCell>
        <mxCell id="qNSdqKUybDEzENmmfayv-32" value="" style="endArrow=none;html=1;rounded=0;" edge="1" parent="1">
          <mxGeometry width="50" height="50" relative="1" as="geometry">
            <mxPoint x="354.58" y="640" as="sourcePoint" />
            <mxPoint x="354.58" y="600" as="targetPoint" />
          </mxGeometry>
        </mxCell>
        <mxCell id="qNSdqKUybDEzENmmfayv-33" value="" style="endArrow=none;html=1;rounded=0;" edge="1" parent="1">
          <mxGeometry width="50" height="50" relative="1" as="geometry">
            <mxPoint x="250" y="640" as="sourcePoint" />
            <mxPoint x="390" y="640" as="targetPoint" />
          </mxGeometry>
        </mxCell>
        <mxCell id="qNSdqKUybDEzENmmfayv-34" value="" style="endArrow=none;html=1;rounded=0;" edge="1" parent="1">
          <mxGeometry width="50" height="50" relative="1" as="geometry">
            <mxPoint x="390" y="690" as="sourcePoint" />
            <mxPoint x="390" y="640" as="targetPoint" />
          </mxGeometry>
        </mxCell>
        <mxCell id="qNSdqKUybDEzENmmfayv-35" value="" style="endArrow=none;html=1;rounded=0;" edge="1" parent="1">
          <mxGeometry width="50" height="50" relative="1" as="geometry">
            <mxPoint x="250" y="690" as="sourcePoint" />
            <mxPoint x="250" y="640" as="targetPoint" />
          </mxGeometry>
        </mxCell>
        <mxCell id="qNSdqKUybDEzENmmfayv-36" value="" style="endArrow=none;dashed=1;html=1;dashPattern=1 3;strokeWidth=2;rounded=0;" edge="1" parent="1">
          <mxGeometry width="50" height="50" relative="1" as="geometry">
            <mxPoint x="324.58" y="830" as="sourcePoint" />
            <mxPoint x="324.58" y="710" as="targetPoint" />
          </mxGeometry>
        </mxCell>
        <mxCell id="qNSdqKUybDEzENmmfayv-37" value="&lt;font color=&quot;#0000cc&quot; style=&quot;font-size: 21px;&quot;&gt;+&lt;/font&gt;" style="ellipse;whiteSpace=wrap;html=1;aspect=fixed;strokeWidth=2;strokeColor=#0000CC;" vertex="1" parent="1">
          <mxGeometry x="560" y="450" width="30" height="30" as="geometry" />
        </mxCell>
        <mxCell id="qNSdqKUybDEzENmmfayv-38" value="&lt;b&gt;&lt;font color=&quot;#7f00ff&quot;&gt;res = res - b1&lt;/font&gt;&lt;/b&gt;" style="text;html=1;align=center;verticalAlign=middle;whiteSpace=wrap;rounded=0;" vertex="1" parent="1">
          <mxGeometry x="360" y="350" width="80" height="30" as="geometry" />
        </mxCell>
        <mxCell id="qNSdqKUybDEzENmmfayv-39" value="&lt;b&gt;&lt;font color=&quot;#7f00ff&quot;&gt;res&lt;/font&gt;&lt;/b&gt;" style="text;html=1;align=center;verticalAlign=middle;resizable=0;points=[];autosize=1;strokeColor=none;fillColor=none;" vertex="1" parent="1">
          <mxGeometry x="230" y="300" width="40" height="30" as="geometry" />
        </mxCell>
        <mxCell id="qNSdqKUybDEzENmmfayv-40" value="&lt;b&gt;&lt;font color=&quot;#ff8000&quot;&gt;b1&lt;/font&gt;&lt;/b&gt;" style="text;html=1;align=center;verticalAlign=middle;resizable=0;points=[];autosize=1;strokeColor=none;fillColor=none;" vertex="1" parent="1">
          <mxGeometry x="360" y="260" width="40" height="30" as="geometry" />
        </mxCell>
        <mxCell id="qNSdqKUybDEzENmmfayv-41" value="&lt;font color=&quot;#7f00ff&quot;&gt;&lt;b&gt;res = res - b2&lt;/b&gt;&lt;/font&gt;" style="text;html=1;align=center;verticalAlign=middle;whiteSpace=wrap;rounded=0;" vertex="1" parent="1">
          <mxGeometry x="360" y="600" width="80" height="30" as="geometry" />
        </mxCell>
        <mxCell id="qNSdqKUybDEzENmmfayv-43" value="" style="endArrow=classic;html=1;rounded=0;" edge="1" parent="1">
          <mxGeometry width="50" height="50" relative="1" as="geometry">
            <mxPoint x="580" y="540" as="sourcePoint" />
            <mxPoint x="580" y="480" as="targetPoint" />
          </mxGeometry>
        </mxCell>
        <mxCell id="qNSdqKUybDEzENmmfayv-44" value="" style="endArrow=classic;html=1;rounded=0;entryX=0.5;entryY=0;entryDx=0;entryDy=0;exitX=1;exitY=0.75;exitDx=0;exitDy=0;" edge="1" parent="1" source="qNSdqKUybDEzENmmfayv-7" target="qNSdqKUybDEzENmmfayv-37">
          <mxGeometry width="50" height="50" relative="1" as="geometry">
            <mxPoint x="440" y="290" as="sourcePoint" />
            <mxPoint x="490" y="240" as="targetPoint" />
            <Array as="points">
              <mxPoint x="575" y="248" />
            </Array>
          </mxGeometry>
        </mxCell>
        <mxCell id="qNSdqKUybDEzENmmfayv-45" value="&lt;b&gt;&lt;font color=&quot;#007fff&quot;&gt;f1&lt;/font&gt;&lt;/b&gt;" style="text;html=1;align=center;verticalAlign=middle;resizable=0;points=[];autosize=1;strokeColor=none;fillColor=none;" vertex="1" parent="1">
          <mxGeometry x="435" y="218" width="30" height="30" as="geometry" />
        </mxCell>
        <mxCell id="qNSdqKUybDEzENmmfayv-46" value="&lt;b&gt;&lt;font color=&quot;#007fff&quot;&gt;f2&lt;/font&gt;&lt;/b&gt;" style="text;html=1;align=center;verticalAlign=middle;resizable=0;points=[];autosize=1;strokeColor=none;fillColor=none;" vertex="1" parent="1">
          <mxGeometry x="435" y="438" width="30" height="30" as="geometry" />
        </mxCell>
        <mxCell id="qNSdqKUybDEzENmmfayv-47" value="" style="endArrow=classic;html=1;rounded=0;" edge="1" parent="1">
          <mxGeometry width="50" height="50" relative="1" as="geometry">
            <mxPoint x="590" y="460" as="sourcePoint" />
            <mxPoint x="670" y="460" as="targetPoint" />
          </mxGeometry>
        </mxCell>
        <mxCell id="qNSdqKUybDEzENmmfayv-48" value="&lt;b&gt;&lt;font color=&quot;#007fff&quot;&gt;fn&lt;/font&gt;&lt;/b&gt;" style="text;html=1;align=center;verticalAlign=middle;resizable=0;points=[];autosize=1;strokeColor=none;fillColor=none;" vertex="1" parent="1">
          <mxGeometry x="560" y="540" width="30" height="30" as="geometry" />
        </mxCell>
        <mxCell id="qNSdqKUybDEzENmmfayv-49" value="&lt;b&gt;&lt;font color=&quot;#0000cc&quot;&gt;f1 + f2 +....+ fn&lt;/font&gt;&lt;/b&gt;" style="text;html=1;align=center;verticalAlign=middle;resizable=0;points=[];autosize=1;strokeColor=none;fillColor=none;" vertex="1" parent="1">
          <mxGeometry x="640" y="468" width="100" height="30" as="geometry" />
        </mxCell>
        <mxCell id="qNSdqKUybDEzENmmfayv-50" value="&lt;b&gt;&lt;font color=&quot;#ff8000&quot;&gt;b2&lt;/font&gt;&lt;/b&gt;" style="text;html=1;align=center;verticalAlign=middle;resizable=0;points=[];autosize=1;strokeColor=none;fillColor=none;" vertex="1" parent="1">
          <mxGeometry x="355" y="498" width="40" height="30" as="geometry" />
        </mxCell>
        <mxCell id="qNSdqKUybDEzENmmfayv-51" value="&lt;b&gt;&lt;font color=&quot;#7f00ff&quot;&gt;res&lt;/font&gt;&lt;/b&gt;" style="text;html=1;align=center;verticalAlign=middle;resizable=0;points=[];autosize=1;strokeColor=none;fillColor=none;" vertex="1" parent="1">
          <mxGeometry x="250" y="555" width="40" height="30" as="geometry" />
        </mxCell>
        <mxCell id="qNSdqKUybDEzENmmfayv-52" value="&lt;font color=&quot;#ff0000&quot; style=&quot;font-size: 21px;&quot;&gt;-&lt;/font&gt;" style="ellipse;whiteSpace=wrap;html=1;aspect=fixed;strokeColor=#FF0000;strokeWidth=2;" vertex="1" parent="1">
          <mxGeometry x="290" y="960" width="30" height="30" as="geometry" />
        </mxCell>
        <mxCell id="qNSdqKUybDEzENmmfayv-53" value="" style="endArrow=classic;html=1;rounded=0;" edge="1" parent="1">
          <mxGeometry width="50" height="50" relative="1" as="geometry">
            <mxPoint x="304.58" y="990" as="sourcePoint" />
            <mxPoint x="304.58" y="1060" as="targetPoint" />
          </mxGeometry>
        </mxCell>
        <mxCell id="qNSdqKUybDEzENmmfayv-54" value="" style="endArrow=classic;html=1;rounded=0;" edge="1" parent="1">
          <mxGeometry width="50" height="50" relative="1" as="geometry">
            <mxPoint x="230" y="980" as="sourcePoint" />
            <mxPoint x="290" y="980" as="targetPoint" />
          </mxGeometry>
        </mxCell>
        <mxCell id="qNSdqKUybDEzENmmfayv-55" value="" style="endArrow=classic;html=1;rounded=0;exitX=0.359;exitY=1.007;exitDx=0;exitDy=0;exitPerimeter=0;" edge="1" parent="1">
          <mxGeometry width="50" height="50" relative="1" as="geometry">
            <mxPoint x="304.58" y="900.0000000000001" as="sourcePoint" />
            <mxPoint x="305.09" y="959.65" as="targetPoint" />
          </mxGeometry>
        </mxCell>
        <mxCell id="qNSdqKUybDEzENmmfayv-56" value="&lt;font color=&quot;#009999&quot; style=&quot;font-size: 14px;&quot;&gt;&lt;b style=&quot;&quot;&gt;STACK RESIDUAL&lt;/b&gt;&lt;/font&gt;" style="text;html=1;align=center;verticalAlign=middle;whiteSpace=wrap;rounded=0;" vertex="1" parent="1">
          <mxGeometry x="270" y="1080" width="60" height="30" as="geometry" />
        </mxCell>
        <mxCell id="qNSdqKUybDEzENmmfayv-57" value="&lt;font color=&quot;#009999&quot; style=&quot;font-size: 14px;&quot;&gt;&lt;b style=&quot;&quot;&gt;STACK FORECAST&lt;/b&gt;&lt;/font&gt;" style="text;html=1;align=center;verticalAlign=middle;whiteSpace=wrap;rounded=0;" vertex="1" parent="1">
          <mxGeometry x="640" y="408" width="60" height="30" as="geometry" />
        </mxCell>
        <mxCell id="qNSdqKUybDEzENmmfayv-58" value="&lt;font style=&quot;font-size: 14px;&quot;&gt;&lt;b&gt;STACK INPUT&lt;/b&gt;&lt;/font&gt;" style="text;html=1;align=center;verticalAlign=middle;whiteSpace=wrap;rounded=0;" vertex="1" parent="1">
          <mxGeometry x="350" y="50" width="60" height="30" as="geometry" />
        </mxCell>
        <mxCell id="qNSdqKUybDEzENmmfayv-59" value="" style="endArrow=none;dashed=1;html=1;dashPattern=1 3;strokeWidth=2;rounded=0;" edge="1" parent="1">
          <mxGeometry width="50" height="50" relative="1" as="geometry">
            <mxPoint x="230" y="980" as="sourcePoint" />
            <mxPoint x="230" y="920" as="targetPoint" />
          </mxGeometry>
        </mxCell>
      </root>
    </mxGraphModel>
  </diagram>
</mxfile>
